# xmcd CD database file
#
# Track frame offsets:
#	150
#	14203
#	25804
#	40761
#	55293
#	68726
#	82781
#	94450
#	105558
#	118651
#	134745
#	149171
#	163665
#	177371
#	190508
#
# Disc length: 2718 seconds
#
# Revision: 0
# Processed by: cddbd v1.5.2PL0 Copyright (c) Steve Scherf et al.
# Submitted via: CDex 1.51
#
DISCID=d60a9c0f
DTITLE=Various Artist - Jazz Piano - CD4
DYEAR=2005
DGENRE=Jazz
TTITLE0=Teddy Wilson - Easy living
TTITLE1=Teddy Wilson - I'm coming, Virginia
TTITLE2=Teddy Wilson - The hour of parting
TTITLE3=Teddy Wilson - If you were mine
TTITLE4=Teddy Wilson - You let me down
TTITLE5=Count Basie - London bridge is falling down
TTITLE6=Count Basie - Louisiana
TTITLE7=Count Basie - Moten swing
TTITLE8=Count Basie - Shorty George
TTITLE9=Jelly Roll Morton - Sidewalk blues
TTITLE10=Jelly Roll Morton - Steamboat stomp
TTITLE11=Jelly Roll Morton - Wildman blues
TTITLE12=Earl Hines - Ridin' a riff
TTITLE13=Earl Hines - Chicago rhythm
TTITLE14=Earl Hines - Cavernism
EXTD=YEAR: 2005
EXTT0=
EXTT1=
EXTT2=
EXTT3=
EXTT4=
EXTT5=
EXTT6=
EXTT7=
EXTT8=
EXTT9=
EXTT10=
EXTT11=
EXTT12=
EXTT13=
EXTT14=
PLAYORDER=
